<svg xmlns="http://www.w3.org/2000/svg" width="37" height="37" viewBox="0 0 37 37"><g><g><path fill="#05285e" d="M11.118 8L8 2.517 8.882 2 12 7.483zm13.764 0L24 7.483 27.118 2l.882.517zM18 0h1v8h-1zm17.103 33.198c-.505-.012-1.01-.002-1.512-.002-.044-.261-.071-.417-.096-.574C33 29.26 31.488 26.38 29.134 24c-2.257-2.298-4.995-3.667-8.134-4.25-.194-.04-.54-.205-.547-.328-.05-.855-.027-1.714-.027-2.652.89 0 1.675.05 2.45-.012.992-.08 1.652-.905 1.63-1.918-.023-1.005-.734-1.84-1.73-1.84H14.249c-.74 0-1.249.449-1.549 1.14-.508 1.246.3 2.533 1.58 2.63.72.057 1.543.011 2.288.011.043.219.067.276.067.342.006.618-.018 1.238.018 1.877.03.474-.119.674-.653.781C9.666 21.114 5.58 25 3.798 31.361c-.164.639-.264 1.197-.404 1.844-.58 0-1.138-.025-1.694.005C.728 33.264 0 34 0 35s.589 1.826 1.576 2H35.211C36.33 36.882 37 36.082 37 35c0-1.086-.769-1.774-1.897-1.802"/></g></g></svg>