<svg xmlns="http://www.w3.org/2000/svg" width="32" height="32" viewBox="0 0 32 32"><g><g><path fill="#05285e" d="M13.601 18.445v-1.02c0-4.969.006-9.937-.004-14.906-.002-.88.14-1.671.964-2.17C16-.553 17.833.381 17.909 2.134c.091 1.175.014 2.353.014 3.53v12.809c.34-.314.541-.473.733-.681 1.281-1.268 2.554-2.545 3.842-3.792 1.042-1 2.264-1.074 3.187-.141.894.903.862 2.141-.152 3.141a1524.804 1524.804 0 0 1-8.185 8.098c-.975.956-2.232.902-3.203-.019C11.412 22.381 8.686 19.675 6 17c-.846-.852-1-1.762-.625-2.6.384-.785 1.262-1.4 2.102-1.201C8 13.31 8.613 13.61 9 14c1.354 1.215 2.605 2.516 3.886 3.784.18.216.37.342.715.66M16.051 32H2.888C1.208 32 .26 30.92.583 29.446c.178-.816.762-1.368 1.614-1.513.202-.035.41-.058.615-.058 8.8-.003 17.6-.008 26.4.002 1.374.002 2.196.71 2.27 1.862.085 1.343-.744 2.261-2.193 2.261H16.05"/></g></g></svg>