<svg xmlns="http://www.w3.org/2000/svg" width="33" height="42" viewBox="0 0 33 42"><g><g><path fill="#05285e" d="M31.384 12.414c1.26 1.405 1.336 2.83.228 3.88-.897.849-2.15.95-3.25.208-1.14-.769-2.25-1.578-3.362-2.376l-.133-.095c-3.958 5.644-8.01 11.335-11.99 16.969-1.266-.926-2.603-1.903-3.877-2.837 3.941-5.605 7.972-11.277 11.955-16.91a492.267 492.267 0 0 1-3.802-2.732C15.48 7.307 15.662 5 17.475 4.17c.859-.381 1.72-.307 2.525.216.13-.386.207-.708.354-1.01C21 2.073 22.714 1.567 24 2.421c2.7 1.892 5.424 3.82 8.104 5.803 1.306.965 1.141 2.986-.212 3.894-.159.108-.335.195-.508.295zM1.39 38.168C1.87 37.388 2.468 36.68 3 36c1.268 1 2.601 1.925 4 2.95-.477.65-1 1.41-1.568 2.12-.858 1.05-2.303 1.224-3.366.456-1.066-.782-1.4-2.181-.676-3.358zM15.93 33.5c-3.736-2.659-7.471-5.317-11.21-7.972a3.092 3.092 0 0 0-.508-.295C3.144 24.741 1.877 25 1.161 26c-.736.908-.724 2.145.033 3.063.132.16.272.316.418.482C-.511 30.601-.345 32.918 1 33.872c2.657 1.89 5.288 3.817 8 5.657 1.464 1.015 3.262.316 3.828-1.384a3.52 3.52 0 0 0 .099-.333c.81.056 1.529.244 2.184.117C16.125 37.734 16.787 37 17 36c.126-1-.21-1.886-1.071-2.5M31.568 4c.749-1.18.501-2.58-.568-3.414-1.066-.834-2.549-.794-3.467.223C26.925 1.484 26.493 2.311 26 3c1.322 1 2.684 2 4.152 3 .477-.676.974-1.33 1.416-2"/></g></g></svg>