<svg xmlns="http://www.w3.org/2000/svg" width="36" height="40" viewBox="0 0 36 40"><g><g><path fill="#05285e" d="M35.664 10.543a.595.595 0 0 0-.24-.044c-.262 0-.582.117-.825.234-1.132.55-2.208 1.267-3.365 1.714C29.857 13 28.409 13.432 27 14c-1.895.666-3 2-2.875 3.693.068.835.476 1.64.743 2.503a1188.422 1188.422 0 0 1-4.107 4.876c-.185-3.008-.457-7.394-.624-10.072.127-.068.192-.096.259-.102 2.339-.193 3.174-1.103 3.177-3.469.002-2.293.001-4.587 0-6.88-.001-1.111.017-2.223-.02-3.334C23.53.484 23.07 0 22.432 0c-.631 0-1.138.414-1.26 1.098-.042.23-.032.471-.033.707-.001 2.767.013 5.533-.02 8.299-.003.317-.184.804-.42.896-.91.457-1.543 0-1.544-1-.002-2.924.005-5.809-.006-8.694C19.145.521 18.654 0 18 0c-.72 0-1.206.509-1.228 1.28-.018.639-.005 1.277-.005 1.916 0 2.293.003 4.586-.002 6.88-.001.848-.197 1.031-1.045 1.023-.791-.009-.932-.164-.937-1.04-.002-.496 0-.993 0-1.49 0-2.34.005-4.681-.003-7.022C14.777.604 14.318 0 13.585 0c-.787 0-1.232.522-1.235 1.544-.007 3.215-.003 6.456-.003 9.647 0 2.702.653 3.462 3.324 3.809.018 0 .032 0 .109.079L15.165 25c-1.324-1.592-2.853-3.368-4.165-4.902.144-.188.3-.42.436-.666.904-1.631.564-3.534-.944-4.606a6.963 6.963 0 0 0-1.66-.897c-2.637-1.006-5.42-1.647-7.762-3.365a.779.779 0 0 0-.457-.166c-.36 0-.613.327-.613.817 0 .785.149 1.6.276 2.392.372 2.32.936 4.586 2.091 6.649.957 1.744 2.358 2.67 4.382 2.373.524-.076 1.024-.316 1.548-.415.222-.041.55.007.703.15 2.076 1.948 3.693 4.252 5.094 6.728.213.374.558.908.742 1.391l-.263 4.683c-.098.48-.07.99-.058 1.485.039 1.554 1.1 2.885 2.567 3.248 1.529.378 3.14-.33 3.918-1.679.593-1.065.387-2.22.34-3.324l-.241-4.204c.094-.195.29-.471.335-.564 1.491-3.025 3.394-5.753 5.876-8.069.181.077.35.153.522.221 2.168.836 3.983.43 5.245-1.206a7.775 7.775 0 0 0 1.006-1.694c1.112-2.504 1.69-5.15 1.917-7.875 0-.326-.121-.867-.336-.962"/></g></g></svg>