<svg xmlns="http://www.w3.org/2000/svg" width="48" height="37" viewBox="0 0 48 37"><g><g><path fill="#05285e" d="M39 11.5l-.117.007a1.01 1.01 0 0 0-.883.994 1 1 0 0 0 1 1h8l.117-.007A1.01 1.01 0 0 0 48 12.5a1 1 0 0 0-1-1zm-.514 8.358l5 3 .103.054c.411.207 1.005.088 1.268-.397.285-.515.143-1.088-.343-1.372l-5-3-.103-.054c-.411-.206-1.005-.089-1.268.397-.285.514-.143 1.088.343 1.372zm0-14.715l-.097.066c-.389.305-.51.866-.246 1.306.284.485.857.627 1.371.343l5-3 .097-.066c.389-.305.51-.866.246-1.306C44.573 2 44 1.86 43.486 2.143zM1 11.501l-.117.006a1.01 1.01 0 0 0-.883.994 1 1 0 0 0 1 1h8l.117-.007A1.01 1.01 0 0 0 10 12.5a1 1 0 0 0-1-1zm2.486-7.643l5 3 .103.054C9 7.12 9.594 7 9.857 6.515 10.142 6 10 5.427 9.515 5.143l-5-3-.104-.054C4 1.883 3.406 2 3.143 2.486 2.858 3 3 3.574 3.486 3.858zm0 17.285l-.097.066c-.389.305-.51.866-.246 1.306.284.485.857.627 1.372.343l5-3 .096-.066c.389-.305.51-.866.246-1.306C9.573 18 9 17.86 8.486 18.143zm17.21 14.988c.036.578.412.869.975.869h6.633c.567 0 .942-.3.986-.866.05-.64.012-1.287.012-1.974h-8.615zm-2.407-3.876c.024.588.44.856.99.857 3.804.008 7.607.023 11.411-.029.31-.004.93-.445.965-.737.122-1.004.047-2.034.047-3.045H18.28zm13.42-8.359c-.016-.688.225-1.154.746-1.6C35.687 19.532 37.251 16 37 11.736 36.477 4.352 29.82-1 22.619.153c-5.135.846-9.2 4.649-10.322 9.731a12.454 12.454 0 0 0 5.156 13.018c.61.418.85.898.832 1.62-.034 1.477-.01 2.236-.01 3.752H31.72z"/></g></g></svg>