<svg xmlns="http://www.w3.org/2000/svg" width="214" height="24" viewBox="0 0 214 24"><g><g><path fill="#fff" d="M194.298 19.357l-.093.11h2.564l5.193-6.118-1.185-1.616zm-54.663-9.047l2.14 2.223V.8h-2.14zm-13.91 9.157h2.14V9.715l-2.14-2.248zm80.15-10.7L212.767.8h-2.599l-5.5 6.342-4.652-6.315-.02-.027h-4.989l6.977 9.477-.003.003 1.557 2.127 5.187 7.033.02.027h4.987zM127.823.822l-.02-.021h-2.078v3.763l2.116 2.224V6.78l.363.389.895.94-.008.009 10.586 11.328.02.02h2.078v-4l-3.61-3.79zM49.755 9.668c0-2.872-1.093-5.335-3.16-7.124C44.699.904 42.164 0 39.456 0c-2.707 0-5.242.904-7.138 2.544-2.068 1.789-3.16 4.252-3.16 7.124 0 2.865 1.092 5.334 3.16 7.132 1.896 1.632 4.43 2.535 7.138 2.535.58 0 1.156-.046 1.739-.135l-1.56-1.6h-.006c-3.655 0-5.924-3.39-5.924-8.854 0-6.509 4.28-7.015 5.579-7.015 3.654 0 5.923 3.395 5.923 8.858 0 2.356-.606 4.24-1.757 5.457l-3.08-3.174-.005 2.608 7.785 7.987.03-2.57-2.996-3.092zM.267 10.4H11.77l.898-1.93H4.36V2.456h8.908l.91-1.922H.267zm4.093 2.133H.267V19.2h13l.91-1.92H4.36zm98.36 6.934h4.012V.8l-4.012 1.306zm-21.37-7.652c0 4.125-1.513 5.884-5.06 5.884-2.906 0-4.842-.917-4.842-5.396V.8H67.41v11.733c0 4.782 2.642 7.2 7.854 7.2 5.592 0 8.196-2.4 8.196-7.528V.8h-2.11zm88.551 6.175c-3.654 0-5.924-3.417-5.924-8.923 0-6.548 4.28-7.057 5.58-7.057 3.654 0 5.923 3.417 5.923 8.923zm6.967-15.162c-1.896-1.652-4.431-2.561-7.139-2.561s-5.243.91-7.139 2.561c-2.067 1.801-3.16 4.281-3.16 7.172 0 2.89 1.093 5.37 3.16 7.172 1.896 1.652 4.431 2.561 7.14 2.561 2.707 0 5.242-.91 7.138-2.561 2.067-1.801 3.16-4.281 3.16-7.172z"/></g></g></svg>