<svg xmlns="http://www.w3.org/2000/svg" width="45" height="36" viewBox="0 0 45 36"><g><g><path fill="#05285e" d="M18.388 11.413c-.313.02-3.168.03-4.388.035l4.814-.005a1.296 1.296 0 0 0-.426-.03zm7.498.023l-7.072.007c.32.09.413.362.424.865.124 5.833-.471 11.599-1.348 17.345-.229 1.5-.43 3.01-.546 4.522-.07.911.656 1.647 1.45 1.825.784.117 1.61-.352 1.91-1.172.14-.38.195-.828.296-1.21.455-3.618.946-7.28 1.438-10.92l.12-.015c.22 1.611.442 3.223.658 4.834.306 2.245.61 4.483.92 6.733.115.842.529 1.443 1.338 1.667 1.388.385 2.379-.717 2.163-2.457-.264-2.138-.536-4.277-.882-6.4-.817-5.06-1.059-10.06-.943-15.137.003-.13.038-.26.074-.487zM26 3.66C26 1.65 24.434 0 22.521 0 20.58 0 19 1.66 19 3.7c0 2.02 1.591 3.617 3.52 3.609zm14 .059C40 1.704 38.438 0 36.5 0 34.579 0 33 1.62 33 3.64c0 2.032 1.535 3.653 3.463 3.669zm-28-.067C12 1.633 10.436 0 8.515 0 6.576 0 5 1.691 5 3.707 5 5.719 6.604 7.323 8.526 7.31zM8 8c-.645 0-1.29.055-1.931.106-1.069.082-1.832.808-2.289 1.77a382.19 382.19 0 0 0-3.628 7.9c-.343.765-.084 1.551.548 1.98.615.415 1.51.244 2.01-.38.228-.299.386-.662.546-1.011.555-1.213 1.097-2.433 1.643-3.651.101.015.101.029.195.044 0 .242-.003.576 0 .864C5.144 19.788 4.573 23.892 4 28c-.267 2-.542 3.908-.746 5.87-.108 1.052.482 1.834 1.324 1.981 1.033.149 1.902-.415 2.169-1.488.033-.134.052-.273.071-.363.363-2.75.722-5.45 1.09-8.152.15-1.092.317-2.183.475-3.273C9 26.367 9.513 30.142 10 33.913c.215 1.398 1.052 2.087 2.234 1.943 1.001-.147 1.554-1.113 1.378-2.423-.502-3.72-1.074-7.433-1.487-11.161-.273-2.474-.319-4.976-.467-7.466l.342-.06c.094.254.24.58.375.875.528 1.154 1.023 2.325 1.625 3.461.369.822 1.295 1.143 2 .792.743-.373 1.085-1.346.702-2.213A466.998 466.998 0 0 0 13.703 11H31.36l-.196.43c-1.888 0-4.616-.004-5.276-.004l-.002.01 5.278-.006c-.906 1.989-1.827 3.97-2.736 5.956-.512 1.12-.317 2.023.513 2.457.914.477 1.764.091 2.302-1.072.544-1.175 1.066-2.363 1.606-3.541.08-.175.202-.328.412-.664 0 .753.006 1.28 0 1.808-.083 5.754-1.13 11.392-1.855 17.07-.17 1.33.387 2.357 1.466 2.556 1.038.145 1.887-.618 2.075-1.938.296-2.062.565-4.134.848-6.201.205-1.653.455-3.305.683-4.957.197.215.252.422.282.634.483 3.524.958 7.048 1.443 10.571.176 1.278.973 2.01 2.016 1.891 1.052-.156 1.681-1.078 1.519-2.336-.502-3.888-1.09-7.766-1.52-11.664-.218-2.384-.294-4.797-.429-7.2l.211-.047c.147.247.275.452.383.687.565 1.228 1.101 2.471 1.694 3.685.398.811 1.356 1.172 2.024.875.775-.419 1.134-1.433.734-2.323a400.111 400.111 0 0 0-3.496-7.593C40.828 9 40 8.241 38.814 8.13 37.882 8 36.94 8 36 8z"/></g></g></svg>